<?xml version="1.0" encoding="UTF-8"?>
<!DOCTYPE svg PUBLIC "-//W3C//DTD SVG 1.1//EN" "http://www.w3.org/Graphics/SVG/1.1/DTD/svg11.dtd">
<!-- Creator: CorelDRAW X5 -->
<svg xmlns="http://www.w3.org/2000/svg" xml:space="preserve" width="101.947mm" height="130mm" style="shape-rendering:geometricPrecision; text-rendering:geometricPrecision; image-rendering:optimizeQuality; fill-rule:evenodd; clip-rule:evenodd"
viewBox="0 0 10195 13000"
 xmlns:xlink="http://www.w3.org/1999/xlink"
 xmlns:svg="http://www.w3.org/2000/svg">
 <defs>
  <style type="text/css">
   <![CDATA[
    .fil0 {fill:#003662}
    .fil1 {fill:#F22F3D}
   ]]>
  </style>
 </defs>
 <g id="Layer_x0020_1">
  <metadata id="CorelCorpID_0Corel-Layer"/>
 </g>
 <g id="svg12">
  <metadata id="CorelCorpID_1Corel-Layer"/>
  <path class="fil0" d="M7088 9550l0 3008c0,441 393,421 794,381 18,-1 21,-5 21,-20 0,-9 19,-1989 19,-2038 115,110 996,1384 1180,1636 351,478 232,432 961,432 127,0 132,-35 132,-158l0 -3008c0,-110 -24,-192 -65,-251 -138,-195 -498,-150 -690,-134 -24,2 -57,22 -59,47 0,227 2,1783 0,2120 -51,-39 -188,-218 -233,-283 -394,-568 -806,-1179 -1222,-1716 -176,-227 -323,-175 -705,-175 -130,0 -132,31 -132,158l0 0z"/>
  <path class="fil0" d="M4488 12900l0 -4 17 -1039 997 -10c931,11 1370,-1158 915,-1938 -170,-292 -464,-155 -996,-40 -265,58 -450,46 -448,179 221,76 425,-53 628,140 139,132 206,381 139,631 -131,484 -736,368 -1235,368 0,-1297 131,-1154 -473,-1031 -496,100 -358,89 -358,1327 0,360 -12,740 0,1097 13,426 374,367 744,367 1,0 4,0 6,0 53,1 64,-8 64,-49z"/>
  <path class="fil0" d="M948 10577l28 -50c87,-264 498,-454 745,-603 136,-83 763,-437 831,-517 -770,-167 -1468,-58 -1970,334 -418,327 -662,1068 -560,1835 95,710 506,1157 1111,1338 560,167 1647,97 2032,-238l11 -979c0,-311 58,-692 -250,-768 -331,-82 -945,245 -1331,388 -103,38 -119,23 -111,149l976 16 1 519c4,252 -5,217 -272,263 -315,54 -682,36 -932,-105 -436,-245 -534,-1013 -311,-1580l0 0z"/>
  <path class="fil1" d="M8442 6976l365 50c-19,18 -3,43 -141,60 -78,10 -96,6 -171,-5l-53 -105zm-5889 2430l0 0c-68,80 -695,434 -831,517 -247,150 -658,340 -745,603l-14 25 28 -8c156,-27 610,-235 786,-310 262,-111 636,-318 814,-218 -109,154 -901,306 -898,653 231,-28 3822,-1153 4178,-1257 358,-105 684,-197 979,-373 200,-119 1318,-1016 1526,-1178 146,-115 210,-188 454,-223 236,-34 415,-12 464,-239 -177,77 -213,102 -366,-15 52,-92 181,-129 315,-110 220,30 178,123 284,189 48,-484 -432,-434 -510,-479 -54,-32 -96,-118 -178,-171 -142,-91 -386,-48 -568,-43 -234,6 -415,-36 -631,-39 30,107 88,127 147,232 -69,43 -102,37 -207,54 -74,12 -157,28 -209,50 -20,143 202,260 100,471 -75,-45 -2230,-2810 -2383,-3010 -139,-181 -264,-327 -402,-508 -385,-503 -675,-712 -1102,-1136 -82,-81 -144,-162 -227,-239l-1383 -1345c-162,-155 -306,-288 -466,-443l-680 -672c-90,-87 -194,-224 -249,-173 -61,109 -38,711 9,855 82,252 267,379 412,522 317,310 616,598 932,910 437,431 936,948 1385,1366 106,98 389,321 332,585 -79,-26 -1165,-1109 -1345,-1274l-1161 -1146c-66,-61 -102,-138 -213,-139 -57,98 -36,651 -3,775 64,244 224,357 353,485l1675 1636c148,142 259,247 406,410 117,130 331,243 292,543 -125,-30 -453,-419 -590,-548l-1484 -1430c-328,-323 -328,-362 -328,91 0,400 -2,486 302,798 483,496 932,899 1484,1453 339,341 620,492 623,861 -108,-35 -1321,-1251 -1506,-1423 -180,-166 -393,-453 -526,-460 -66,115 -113,694 213,1006 408,391 884,889 1295,1269 113,105 212,200 321,308 106,105 209,226 200,460 -113,-22 -302,-262 -421,-378 -144,-140 -272,-259 -419,-397l-610 -602c-72,-67 -135,-177 -249,-162 -61,292 -16,664 148,845 83,93 169,164 259,253l774 765c234,223 269,309 478,409 79,38 36,-3 78,55l-1143 696z"/>
  <path class="fil1" d="M7360 4542l-22 -28c-103,-166 -465,-1458 -584,-1552 -118,50 -269,452 -285,571 -69,518 736,1720 402,2009l-268 -691c-53,-151 -179,-613 -268,-682 -92,29 -328,474 -288,764 19,135 217,695 285,795 131,193 316,412 461,589l349 443c54,70 61,110 150,127l877 -1774c118,-283 35,-474 -53,-727l-682 -1976c-68,-195 -149,-480 -229,-650 -121,19 -103,67 -206,270 -56,110 -108,207 -115,361 -11,230 346,1153 441,1435 66,195 228,535 35,717z"/>
 </g>
</svg>
